<svg id="Layer_1" enable-background="new 0 0 512 512" height="512" viewBox="0 0 512 512" width="512" xmlns="http://www.w3.org/2000/svg"><g><path d="m304.216 342.202c-8.284 0-15.016-6.716-15.016-15 0-70.395 56.931-127.467 127.45-127.467 8.284 0 15.016 6.716 15.016 15v.017c.001 70.382-56.944 127.45-127.45 127.45z" fill="#14aa6b"/><path d="m304.2 185.667h-96.4c-8.284 0-15-6.716-15-15v-155.667c0-8.284 6.716-15 15-15h96.4c8.284 0 15 6.716 15 15v155.667c0 8.284-6.716 15-15 15z" fill="#c8ff50"/><path d="m319.2 170.667v-155.667c0-8.284-6.716-15-15-15h-48.2v185.667h48.2c8.284 0 15-6.716 15-15z" fill="#87e752"/><path d="m304.2 512h-96.4c-8.284 0-15-6.716-15-15v-155.667c0-8.284 6.716-15 15-15h96.4c8.284 0 15 6.716 15 15v155.667c0 8.284-6.716 15-15 15z" fill="#4ec95f"/><path d="m319.2 497v-155.667c0-8.284-6.716-15-15-15h-48.2v185.667h48.2c8.284 0 15-6.716 15-15z" fill="#14aa6b"/><path d="m207.8 175.667h.01z"/><path d="m192.8 170.667h126.4v170.667h-126.4z" fill="#87e752"/><path d="m256 170.667h63.2v170.667h-63.2z" fill="#4ec95f"/><path d="m95.333 43.2c-8.284 0-15 6.716-15 15 0 58.86 37.243 96.328 67.338 112.467-30.046 16.113-67.338 53.624-67.338 112.467 0 8.284 6.716 15 15 15 70.285 0 127.466-57.182 127.466-127.467s-57.18-127.467-127.466-127.467z" fill="#87e752"/><path d="m80.333 283.133c0 8.284 6.716 15 15 15 70.285 0 127.466-57.182 127.466-127.467h-75.128c-30.046 16.113-67.338 53.625-67.338 112.467z" fill="#4ec95f"/></g></svg>