<svg id="Capa_1" enable-background="new 0 0 512 512" height="512" viewBox="0 0 512 512" width="512" xmlns="http://www.w3.org/2000/svg"><g><path d="m318.79 208.248c8.37 17.1 10.024 35.163 5.849 49.515-13.896-5.506-27.147-17.893-35.517-34.992-6.701-13.689-9.097-27.996-7.645-40.521.545-4.699 5.955-7.347 10-4.895 10.784 6.535 20.613 17.204 27.313 30.893z" fill="#95d6a4"/><path d="m430.632 181.185c-11.948-4.03-26.44-4.667-41.225-.966-9.303 2.329-17.691 6.121-24.786 10.899 18.125-34.971 37.832-64.924 56.006-86.731 2.919-3.508 2.444-8.718-1.056-11.637-3.524-2.911-8.71-2.444-11.637 1.056-44.661 53.605-98.282 154.726-117.387 259.815-.823 4.484 2.153 8.782 6.645 9.597.5.097.992.137 1.484.137 3.919 0 7.395-2.79 8.113-6.782 9.347-51.398 27.157-101.777 48.061-145.769 12.201 4.455 27.228 5.302 42.581 1.458 14.785-3.702 27.267-11.092 35.906-20.277 3.24-3.445 1.777-9.288-2.705-10.8z" fill="#b3e59f"/><path d="m364.732 368.623c0-12.031-9.753-21.784-21.784-21.784h-44.28l-4.42-16.518c-5.712-9.873-16.386-16.515-28.612-16.515h-58.79c-26.576 0-52.855 5.577-77.14 16.37l-.656.292c-14.444 6.42-29.594 10.994-45.092 13.647l-33.033 21.385v112.833h17.215c15.754 0 31.212 4.281 44.721 12.387 13.509 8.105 28.967 17.446 44.721 17.446h77.971l21.409-12.68c.136-.655.239-1.323.307-2.002 1.237-12.358-8.434-22.774-20.538-22.774l53.264-16.516c.136-.654.239-1.321.307-2 1.237-12.358-8.434-22.774-20.538-22.774l61.522-16.516c.136-.654.239-1.321.307-2.001 1.237-12.358-8.434-22.774-20.538-22.774l53.45-16.516c.149-.975.227-1.973.227-2.99z" fill="#ecbd83"/><path d="m157.582 495.484c-12.631 0-25.087-3.294-35.893-9.834-7.96-4.818-16.501-8.494-25.375-10.992-7.234-2.036-12.356-8.426-12.356-15.941v-114.599c-5.469.936-10.975 1.63-16.514 2.084l-16.518.637v140.387h20.191c14.856 0 29.085 4.812 41.833 12.44 13.487 8.071 28.912 12.334 44.632 12.334h77.971c10.104 0 19.367-6.84 21.4-16.516z" fill="#e2a975"/><path d="m59.441 338.581h-33.29c-8.837 0-16 7.163-16 16v124.903c0 8.837 7.163 16 16 16h33.29c4.418 0 8-3.582 8-8v-140.903c0-4.419-3.581-8-8-8z" fill="#ffe07d"/><path d="m26.151 495.484c0-13.094-8.258-13.094-8.258-26.188s8.258-13.094 8.258-26.188c0-13.073-8.258-13.073-8.258-26.146 0-13.07 8.258-13.07 8.258-26.139 0-13.068-8.258-13.068-8.258-26.136 0-13.053 8.258-13.053 8.258-26.106h-16.516c-4.561 0-8.258 3.697-8.258 8.258v140.387c0 4.561 3.697 8.258 8.258 8.258z" fill="#95d6a4"/><g fill="#e2a975"><path d="m199.57 338.581c0 4.561 3.697 8.258 8.258 8.258h90.839c0-6.048-1.582-11.641-4.42-16.516h-86.419c-4.56 0-8.258 3.697-8.258 8.258z"/><path d="m364.506 371.613h-115.387c-4.561 0-8.258 3.697-8.258 8.258 0 4.561 3.697 8.258 8.258 8.258h61.936 34.171c9.748 0 17.832-7.173 19.28-16.516z"/><path d="m331.282 412.903h-90.422c-4.561 0-8.258 3.697-8.258 8.258 0 4.561 3.697 8.258 8.258 8.258h28.903 40.112c10.105 0 19.375-6.84 21.407-16.516z"/><path d="m289.994 454.194h-57.391c-4.561 0-8.258 3.697-8.258 8.258 0 4.561 3.697 8.258 8.258 8.258h35.983c10.104 0 19.375-6.841 21.408-16.516z"/></g><path d="m438.127 132.129h17.681c11.114 0 18.343-11.697 13.372-21.638l-22.213-44.427-22.213 44.427c-4.97 9.941 2.259 21.638 13.373 21.638z" fill="#d6bdef"/><path d="m394.174 25.376-8.841 15.312c-5.557 9.626.958 21.734 12.052 22.4l49.582 2.976-27.367-41.451c-6.124-9.275-19.868-8.862-25.426.763z" fill="#ead1ff"/><path d="m508.602 40.689-8.841-15.312c-5.557-9.626-19.301-10.038-25.425-.763l-27.368 41.451 49.582-2.976c11.094-.667 17.609-12.775 12.052-22.4z" fill="#ead1ff"/><path d="m446.968 66.065 27.368 41.451c6.124 9.275 19.868 8.863 25.425-.762l8.841-15.312c5.557-9.625-.958-21.734-12.052-22.4z" fill="#ffe07d"/><path d="m446.968 66.065-27.368 41.45c-6.124 9.275-19.868 8.863-25.425-.762l-8.841-15.312c-5.557-9.625.958-21.734 12.052-22.4z" fill="#ffd064"/><path d="m446.968 66.065 22.213-44.427c4.971-9.941-2.258-21.638-13.373-21.638h-17.681c-11.115 0-18.343 11.697-13.373 21.638z" fill="#ffe07d"/><circle cx="446.968" cy="66.065" fill="#ffc250" r="16.516"/></g></svg>