<svg height="512pt" viewBox="-36 0 512 512" width="512pt" xmlns="http://www.w3.org/2000/svg"><path d="m399.195312 92.710938h-226.640624c-22.757813 0-41.207032 18.449218-41.207032 41.207031v336.875c0 22.757812 18.449219 41.207031 41.207032 41.207031h226.640624c22.757813 0 41.207032-18.449219 41.207032-41.207031v-336.875c0-22.757813-18.449219-41.207031-41.207032-41.207031zm0 0" fill="#ce795f"/><path d="m409.496094 94.011719v39.90625l-236.941406 347.175781h-39.910157c4.574219 17.773438 20.710938 30.90625 39.910157 30.90625h226.640624c22.757813 0 41.207032-18.449219 41.207032-41.207031v-336.875c0-19.199219-13.132813-35.332031-30.90625-39.90625zm0 0" fill="#a05a4b"/><path d="m386.316406 481.09375h-200.882812c-12.800782 0-23.179688-10.378906-23.179688-23.179688v-311.117187c0-12.800781 10.378906-23.179687 23.179688-23.179687h200.882812c12.800782 0 23.179688 10.378906 23.179688 23.179687v311.117187c0 12.800782-10.378906 23.179688-23.179688 23.179688zm0 0" fill="#fff9eb"/><path d="m386.316406 123.617188h-7.726562v303.394531c0 12.800781-10.375 23.175781-23.175782 23.175781h-193.160156v7.726562c0 12.800782 10.378906 23.179688 23.179688 23.179688h200.882812c12.800782 0 23.179688-10.378906 23.179688-23.179688v-311.117187c0-12.800781-10.378906-23.179687-23.179688-23.179687zm0 0" fill="#e9e3d5"/><path d="m311.628906 379.191406h-10.300781v-104.738281c0-8.53125-6.917969-15.453125-15.453125-15.453125h-25.753906c-8.535156 0-15.453125 6.921875-15.453125 15.453125 0 8.535156 6.917969 15.453125 15.453125 15.453125h10.300781v89.285156h-10.300781c-8.535156 0-15.453125 6.917969-15.453125 15.453125 0 8.53125 6.917969 15.449219 15.453125 15.449219h51.507812c8.535156 0 15.453125-6.917969 15.453125-15.449219 0-8.535156-6.917969-15.453125-15.453125-15.453125zm0 0" fill="#4b7cb1"/><path d="m300.46875 210.066406c0 8.535156-6.917969 15.453125-15.453125 15.453125-8.53125 0-15.453125-6.917969-15.453125-15.453125 0-8.53125 6.921875-15.449218 15.453125-15.449218 8.535156 0 15.453125 6.917968 15.453125 15.449218zm0 0" fill="#4b7cb1"/><path d="m329.839844 72.210938c-5.800782-.386719-19.558594.398437-22.449219-.585938-3.523437-1.199219-6.0625-4.527344-6.0625-8.460938 0-3.203124 1.46875-6.210937 3.960937-8.226562 6.574219-5.308594 10.898438-13.304688 11.433594-22.148438 0-.023437.003906-.050781.007813-.074218 1.023437-17.742188-13.074219-32.714844-30.855469-32.714844-17.066406 0-30.90625 13.832031-30.90625 30.898438 0 9.714843 4.484375 18.375 11.492188 24.039062 2.492187 2.015625 3.960937 5.023438 3.960937 8.226562 0 .28125-.035156.675782-.035156.675782-.34375 4.621094-4.195313 8.265625-8.90625 8.265625h-16.8125c-22.800781 0-41.207031 18.515625-41.207031 41.207031.074218 14.203125 11.835937 25.753906 26.089843 25.753906h112.984375c14.222656 0 25.753906-11.527344 25.753906-25.753906 0-21.660156-16.832031-39.679688-38.449218-41.101562zm-43.964844-49.035157c4.4375 0 7.828125 3.773438 7.71875 7.914063-.003906.070312-.007812.140625-.011719.210937-.25 4.558594-4.183593 7.519531-8.605469 7.269531-3.84375-.445312-6.828124-3.707031-6.828124-7.667968 0-4.269532 3.460937-7.726563 7.726562-7.726563zm0 0" fill="#8b9ba9"/><path d="m337.382812 73.421875v11.5625c0 12.800781-10.375 23.179687-23.175781 23.179687h-110.414062c-.210938 1.691407-.332031 3.40625-.332031 5.152344.074218 14.199219 11.835937 25.753906 26.089843 25.753906h112.824219c14.21875 0 25.949219-11.636718 25.914062-25.851562-.042968-19.023438-13.074218-35.214844-30.90625-39.796875zm0 0" fill="#6c7a88"/><path d="m81.125 130.058594h-7.722656c-36.214844 0-65.675782 29.460937-65.675782 65.671875v67.476562c-4.269531 0-7.726562 3.457031-7.726562 7.726563 0 4.269531 3.457031 7.726562 7.726562 7.726562h7.726563c4.269531 0 7.726563-3.457031 7.726563-7.726562v-75.203125c0-25.0625 18.457031-45.898438 42.496093-49.625v321.335937c0 4.269532 3.457031 7.726563 7.726563 7.726563 4.265625 0 7.722656-3.457031 7.722656-7.726563v-321.929687c4.269531 0 7.726562-3.460938 7.726562-7.726563 0-4.269531-3.457031-7.726562-7.726562-7.726562zm0 0" fill="#8b9ba9"/><path d="m73.402344 452.503906c-15.433594 0-27.042969-22.65625-27.042969-37.34375v-219.429687c0-14.910157 12.128906-27.039063 27.042969-27.039063 14.910156 0 27.039062 12.128906 27.039062 27.039063v219.429687c0 14.6875-11.609375 37.34375-27.039062 37.34375zm0 0" fill="#6697cc"/><path d="m73.402344 168.691406c-1.3125 0-2.601563.097656-3.863282.277344v232.027344c0 11.378906-9.226562 20.601562-20.605468 20.601562h-1.929688c2.628906 14.058594 13.089844 30.90625 26.398438 30.90625 15.429687 0 27.039062-22.65625 27.039062-37.34375v-219.429687c0-14.910157-12.128906-27.039063-27.039062-27.039063zm0 0" fill="#4b7cb1"/></svg>